<?xml version="1.0" encoding="UTF-8"?>
<svg xmlns="http://www.w3.org/2000/svg" xmlns:xlink="http://www.w3.org/1999/xlink" width="100px" height="100px" viewBox="0 0 100 100" version="1.1">
<g id="surface2">
<path style=" stroke:none;fill-rule:nonzero;fill:rgb(99.215686%,96.862745%,89.803922%);fill-opacity:1;" d="M 91.417969 21.976562 C 106.875 44.816406 100.921875 75.859375 78.113281 91.363281 C 55.300781 106.867188 24.246094 100.972656 8.699219 78.191406 C -6.84375 55.410156 -1.011719 24.34375 21.738281 8.753906 C 44.492188 -6.835938 75.570312 -1.058594 91.203125 21.660156 "/>
<path style=" stroke:none;fill-rule:nonzero;fill:rgb(99.215686%,96.862745%,89.411765%);fill-opacity:1;" d="M 49.898438 46.222656 L 49.910156 96.125 "/>
<path style=" stroke:none;fill-rule:nonzero;fill:rgb(88.627451%,79.215686%,50.980392%);fill-opacity:1;" d="M 96.039062 50 C 96.039062 75.472656 75.386719 96.125 49.910156 96.125 C 24.4375 96.125 3.785156 75.472656 3.785156 50 C 3.785156 24.523438 24.4375 3.871094 49.910156 3.871094 C 75.386719 3.871094 96.039062 24.523438 96.039062 50 Z M 96.039062 50 "/>
<path style=" stroke:none;fill-rule:nonzero;fill:rgb(99.215686%,96.862745%,89.803922%);fill-opacity:1;" d="M 45.566406 4.710938 C 45.429688 4.710938 45.320312 4.738281 45.246094 4.796875 C 44.652344 5.292969 44.011719 6.910156 43.714844 7.703125 C 42.246094 11.617188 40.914062 6.996094 40.835938 6.097656 C 40.746094 5.042969 39.488281 5.667969 39.242188 6.410156 C 38.308594 9.1875 49.832031 20.628906 44.503906 28.175781 C 40.453125 33.914062 35.980469 31.152344 35.210938 27.449219 C 34.953125 26.222656 34.652344 24.691406 36.4375 20.890625 C 38.273438 16.976562 39.816406 15.136719 37.910156 13.148438 C 36 11.15625 37.496094 7.316406 36.554688 7.242188 C 34.351562 7.066406 36.488281 9.898438 34.695312 11.210938 C 32.964844 12.476562 32.679688 8.949219 30.84375 9.113281 C 29.308594 9.25 29.65625 11.878906 32.714844 12.925781 C 34.574219 13.5625 37.386719 16.394531 35.746094 18.273438 C 32.308594 22.210938 26.710938 15.691406 25.65625 14.3125 C 24.605469 12.933594 19.882812 13.433594 24.109375 16.734375 C 28.335938 20.03125 31.007812 20.957031 32.273438 26.429688 C 33.539062 31.898438 35.953125 32.992188 36.914062 34.664062 C 37.878906 36.335938 39.792969 44.285156 32.671875 42.421875 C 25.546875 40.554688 24.902344 32.316406 24.460938 30.136719 C 24.023438 27.953125 20.59375 20.148438 18.804688 19.171875 C 17.085938 18.230469 15.246094 19.1875 16.910156 21.699219 C 18.792969 24.539062 21.320312 27.246094 21.210938 28.429688 C 21.097656 29.648438 19.117188 31.183594 17.359375 30.023438 C 15.351562 28.695312 12.0625 27.679688 10.984375 28.175781 C 10.066406 28.601562 10.796875 29.855469 11.554688 29.929688 C 13.054688 30.085938 16.898438 31.523438 17.960938 32.628906 C 19.027344 33.734375 22.578125 37.9375 20.941406 39.613281 C 19.304688 41.292969 14.492188 41.128906 12.621094 38.480469 C 10.75 35.832031 9.164062 33.476562 8.238281 33.375 C 7.3125 33.273438 7.347656 33.339844 6.933594 34.011719 C 6.515625 34.6875 8.183594 36.609375 8.996094 37.0625 C 9.808594 37.515625 12.480469 40.355469 12.355469 43.28125 C 12.230469 46.207031 11.457031 46.433594 10.382812 46.265625 C 9.316406 46.101562 7.847656 44.042969 7.4375 42.996094 C 7.027344 41.945312 5.597656 41.28125 5.546875 42.132812 C 5.496094 42.980469 6.835938 44.453125 6.5 45.085938 C 6.160156 45.722656 5.476562 45.128906 4.683594 44.796875 C 4.15625 44.574219 4.226562 45.90625 4.371094 46.289062 C 4.632812 46.976562 4.835938 47 4.835938 47 C 4.835938 47 5.824219 47.589844 9.757812 47.886719 C 12.796875 48.117188 16.808594 51.480469 16.808594 51.480469 C 16.808594 51.480469 21.859375 56.308594 33.003906 55.039062 C 44.148438 53.769531 43.03125 61.359375 43.03125 61.359375 C 43.03125 61.359375 42.761719 64.488281 43.164062 66.917969 C 43.566406 69.34375 43.613281 69.660156 41.558594 73.042969 C 39.503906 76.429688 40.625 78.832031 40.511719 79.632812 C 40.398438 80.429688 40.265625 80.277344 35.707031 80.898438 C 31.144531 81.515625 30.464844 84.515625 28.5 83.914062 C 25.507812 82.992188 22.648438 83.84375 20.601562 85.652344 C 18.554688 87.460938 21.8125 87.195312 21.8125 87.195312 C 21.8125 87.195312 24.421875 84.046875 28.53125 86.144531 C 32.746094 88.289062 30.488281 93.277344 29.289062 95.375 C 29.394531 95.417969 29.5 95.457031 29.601562 95.503906 C 29.632812 95.511719 29.640625 95.515625 29.648438 95.519531 L 32.40625 93.089844 C 32.40625 93.089844 33.222656 91.683594 32.792969 88.898438 C 32.355469 86.085938 32.5 84.320312 35.621094 85.703125 C 38.796875 87.113281 36.53125 90.503906 36.53125 90.503906 C 36.53125 90.503906 33.738281 93.335938 35.054688 95.21875 C 35.460938 95.800781 36.132812 95.757812 36.152344 95.144531 C 36.195312 93.777344 36.710938 90.734375 38.898438 91.289062 C 41.40625 91.925781 40.257812 95.992188 40.257812 95.992188 L 42.085938 95.859375 C 42.085938 95.859375 43.597656 92.773438 40.503906 90.46875 C 37.410156 88.167969 40.957031 87.453125 42.617188 88.960938 C 43.585938 89.84375 44.785156 91.46875 44.980469 95.632812 C 45.175781 99.800781 47.027344 96.613281 47.027344 96.613281 C 47.027344 96.613281 45.46875 91.339844 47.121094 90.886719 C 50.40625 89.988281 48.59375 98.089844 48.59375 98.089844 L 49.929688 96.457031 L 49.941406 46.191406 C 49.941406 46.191406 45.148438 45.757812 43.339844 42.136719 C 41.53125 38.515625 43.71875 34.683594 45.417969 32.59375 C 47.121094 30.507812 49.238281 25.933594 48.777344 23.453125 C 48.316406 20.96875 47.875 19.335938 45.519531 15.289062 C 43.164062 11.242188 45.613281 6.792969 47.214844 6.417969 C 48.664062 6.082031 46.523438 4.714844 45.566406 4.710938 Z M 45.566406 4.710938 "/>
<path style=" stroke:none;fill-rule:nonzero;fill:rgb(88.627451%,79.215686%,50.980392%);fill-opacity:1;" d="M 24.207031 42.398438 C 24.207031 42.398438 12.441406 43.628906 18.71875 48.527344 C 24.757812 53.242188 28.484375 51.539062 28.484375 51.539062 C 28.484375 51.539062 32.996094 50.226562 30.964844 45.777344 C 30.410156 44.558594 29.441406 43.582031 28.261719 43.082031 C 26.378906 42.285156 24.207031 42.398438 24.207031 42.398438 Z M 24.207031 42.398438 "/>
<path style=" stroke:none;fill-rule:nonzero;fill:rgb(88.627451%,79.215686%,50.980392%);fill-opacity:1;" d="M 42.945312 46.050781 C 42.433594 45.394531 39.28125 41.167969 36.40625 46.796875 C 33.535156 52.425781 38.144531 51.457031 41.011719 52.679688 C 43.554688 53.761719 45.140625 53.898438 45.753906 52.832031 C 46.535156 51.476562 44.984375 49.109375 42.945312 46.050781 Z M 42.945312 46.050781 "/>
<path style=" stroke:none;fill-rule:nonzero;fill:rgb(99.215686%,96.862745%,89.803922%);fill-opacity:1;" d="M 54.273438 4.734375 C 53.320312 4.738281 51.179688 6.105469 52.628906 6.441406 C 54.226562 6.816406 56.675781 11.261719 54.320312 15.308594 C 51.964844 19.359375 51.523438 20.992188 51.0625 23.472656 C 50.605469 25.957031 52.722656 30.53125 54.421875 32.617188 C 56.121094 34.703125 58.308594 38.535156 56.5 42.160156 C 54.691406 45.78125 49.898438 46.210938 49.898438 46.210938 L 49.910156 96.480469 L 51.246094 98.113281 C 51.246094 98.113281 49.433594 90.011719 52.71875 90.910156 C 54.375 91.359375 52.8125 96.632812 52.8125 96.632812 C 52.8125 96.632812 54.667969 99.824219 54.863281 95.65625 C 55.058594 91.488281 56.257812 89.863281 57.226562 88.984375 C 58.882812 87.476562 62.429688 88.191406 59.339844 90.492188 C 56.246094 92.792969 57.753906 95.882812 57.753906 95.882812 L 59.585938 96.015625 C 59.585938 96.015625 58.4375 91.945312 60.941406 91.3125 C 63.132812 90.757812 63.644531 93.800781 63.6875 95.167969 C 63.710938 95.78125 64.378906 95.824219 64.789062 95.242188 C 66.105469 93.359375 63.308594 90.527344 63.308594 90.527344 C 63.308594 90.527344 61.042969 87.132812 64.222656 85.726562 C 67.339844 84.34375 67.484375 86.105469 67.050781 88.921875 C 66.621094 91.707031 67.4375 93.109375 67.4375 93.109375 L 70.230469 95.578125 C 70.242188 95.5625 70.25 95.542969 70.261719 95.53125 C 70.277344 95.515625 70.300781 95.511719 70.320312 95.5 C 70.390625 95.457031 70.386719 95.457031 70.382812 95.460938 C 70.382812 95.457031 70.398438 95.453125 70.445312 95.425781 C 70.480469 95.410156 70.511719 95.390625 70.546875 95.375 C 69.351562 93.285156 67.085938 88.316406 71.308594 86.164062 C 75.421875 84.070312 78.03125 87.21875 78.03125 87.21875 C 78.03125 87.21875 81.285156 87.480469 79.238281 85.671875 C 77.191406 83.863281 74.335938 83.011719 71.339844 83.933594 C 69.378906 84.539062 68.695312 81.535156 64.136719 80.917969 C 59.574219 80.300781 59.441406 80.453125 59.328125 79.65625 C 59.214844 78.855469 60.335938 76.453125 58.28125 73.066406 C 56.230469 69.683594 56.273438 69.363281 56.675781 66.9375 C 57.078125 64.511719 56.808594 61.382812 56.808594 61.382812 C 56.808594 61.382812 55.695312 53.792969 66.835938 55.0625 C 77.980469 56.332031 83.03125 51.503906 83.03125 51.503906 C 83.03125 51.503906 87.042969 48.140625 90.085938 47.910156 C 94.015625 47.613281 95.007812 47.023438 95.007812 47.023438 C 95.007812 47.023438 95.207031 46.996094 95.46875 46.308594 C 95.613281 45.929688 95.683594 44.597656 95.160156 44.816406 C 94.367188 45.148438 93.679688 45.742188 93.339844 45.109375 C 93.003906 44.476562 94.347656 43.003906 94.296875 42.152344 C 94.246094 41.304688 92.8125 41.96875 92.402344 43.019531 C 91.996094 44.066406 90.523438 46.121094 89.460938 46.289062 C 88.382812 46.457031 87.613281 46.230469 87.484375 43.304688 C 87.359375 40.378906 90.03125 37.539062 90.84375 37.085938 C 91.65625 36.632812 93.324219 34.710938 92.910156 34.035156 C 92.492188 33.359375 92.53125 33.292969 91.605469 33.394531 C 90.679688 33.5 89.09375 35.855469 87.222656 38.503906 C 85.351562 41.148438 80.539062 41.3125 78.898438 39.636719 C 77.261719 37.957031 80.816406 33.757812 81.878906 32.652344 C 82.945312 31.546875 86.785156 30.109375 88.285156 29.953125 C 89.042969 29.875 89.777344 28.621094 88.859375 28.199219 C 87.78125 27.703125 84.488281 28.71875 82.484375 30.042969 C 80.722656 31.207031 78.742188 29.671875 78.632812 28.453125 C 78.523438 27.269531 81.050781 24.5625 82.933594 21.722656 C 84.597656 19.210938 82.757812 18.25 81.035156 19.191406 C 79.246094 20.171875 75.820312 27.976562 75.378906 30.15625 C 74.9375 32.339844 74.296875 40.578125 67.171875 42.441406 C 60.046875 44.308594 61.960938 36.359375 62.925781 34.6875 C 63.890625 33.015625 66.300781 31.921875 67.566406 26.449219 C 68.835938 20.980469 71.503906 20.054688 75.730469 16.757812 C 79.957031 13.457031 75.234375 12.957031 74.183594 14.335938 C 73.132812 15.710938 67.53125 22.234375 64.09375 18.292969 C 62.457031 16.414062 65.265625 13.582031 67.128906 12.945312 C 70.1875 11.898438 70.53125 9.269531 69 9.132812 C 67.164062 8.96875 66.875 12.5 65.144531 11.234375 C 63.351562 9.921875 65.488281 7.085938 63.289062 7.261719 C 62.347656 7.339844 63.84375 11.179688 61.933594 13.167969 C 60.023438 15.160156 61.570312 16.996094 63.40625 20.910156 C 65.1875 24.714844 64.886719 26.246094 64.632812 27.472656 C 63.863281 31.175781 59.390625 33.933594 55.339844 28.199219 C 50.011719 20.652344 61.53125 9.210938 60.601562 6.433594 C 60.351562 5.6875 59.09375 5.066406 59.003906 6.121094 C 58.925781 7.015625 57.59375 11.640625 56.128906 7.726562 C 55.828125 6.929688 55.1875 5.3125 54.597656 4.820312 C 54.523438 4.757812 54.410156 4.730469 54.273438 4.734375 Z M 70.816406 95.847656 C 70.804688 95.855469 70.789062 95.863281 70.777344 95.871094 C 70.773438 95.875 70.765625 95.875 70.761719 95.878906 C 70.785156 95.875 70.804688 95.867188 70.824219 95.859375 C 70.824219 95.859375 70.820312 95.851562 70.816406 95.847656 Z M 70.816406 95.847656 "/>
<path style=" stroke:none;fill-rule:nonzero;fill:rgb(88.627451%,79.215686%,50.980392%);fill-opacity:1;" d="M 75.449219 42.378906 C 75.449219 42.378906 87.210938 43.609375 80.933594 48.511719 C 74.894531 53.222656 71.171875 51.523438 71.171875 51.523438 C 71.171875 51.523438 66.65625 50.207031 68.6875 45.761719 C 69.246094 44.539062 70.210938 43.566406 71.394531 43.066406 C 73.277344 42.269531 75.449219 42.378906 75.449219 42.378906 Z M 75.449219 42.378906 "/>
<path style=" stroke:none;fill-rule:nonzero;fill:rgb(88.627451%,79.215686%,50.980392%);fill-opacity:1;" d="M 56.707031 46.03125 C 57.21875 45.378906 60.375 41.148438 63.246094 46.777344 C 66.117188 52.40625 61.507812 51.4375 58.640625 52.660156 C 56.101562 53.746094 54.511719 53.882812 53.898438 52.816406 C 53.117188 51.457031 54.671875 49.09375 56.707031 46.03125 Z M 56.707031 46.03125 "/>
<path style=" stroke:none;fill-rule:nonzero;fill:rgb(99.215686%,96.862745%,89.411765%);fill-opacity:1;" d="M 49.898438 46.222656 L 54.089844 70.515625 C 54.089844 70.515625 49.914062 96.851562 49.910156 96.488281 C 49.910156 96.125 47.628906 79.34375 47.628906 79.34375 L 48.148438 61.03125 Z M 49.898438 46.222656 "/>
<path style=" stroke:none;fill-rule:nonzero;fill:rgb(96.470588%,92.156863%,80.392157%);fill-opacity:1;" d="M 49.96875 60.535156 L 48.148438 61.03125 L 46.984375 62.265625 L 46.453125 63.847656 L 46.46875 65.898438 L 47.074219 67.289062 L 48.109375 68.371094 L 49.726562 69.03125 L 50.160156 69.167969 L 50.917969 68.804688 L 52.160156 68.171875 L 52.921875 67.304688 L 53.335938 66.527344 L 53.71875 65.128906 L 53.542969 63.863281 L 53.042969 62.144531 L 51.945312 61.113281 L 50.734375 60.613281 Z M 49.96875 60.535156 "/>
<path style=" stroke:none;fill-rule:nonzero;fill:rgb(96.470588%,92.156863%,80.392157%);fill-opacity:1;" d="M 47.59375 67.832031 L 47.507812 68.550781 L 47.335938 69.488281 L 47.035156 69.964844 L 48.125 69.691406 L 49.285156 69.433594 L 50.160156 69.167969 L 48.917969 68.703125 Z M 47.59375 67.832031 "/>
<path style=" stroke:none;fill-rule:nonzero;fill:rgb(96.470588%,92.156863%,80.392157%);fill-opacity:1;" d="M 52.539062 67.738281 C 52.539062 67.738281 51.613281 68.332031 51.539062 68.488281 C 51.46875 68.640625 50.160156 69.167969 50.160156 69.167969 C 50.160156 69.167969 50.539062 69.285156 50.636719 69.3125 C 50.734375 69.34375 51.871094 69.679688 51.871094 69.679688 L 52.589844 69.964844 L 53.027344 69.933594 L 52.515625 68.917969 Z M 52.539062 67.738281 "/>
<path style=" stroke:none;fill-rule:nonzero;fill:rgb(96.470588%,92.156863%,80.392157%);fill-opacity:1;" d="M 47.035156 69.964844 L 44.804688 71.085938 L 43.246094 72.34375 L 42.371094 73.722656 L 41.921875 75.210938 L 41.976562 76.820312 L 42.289062 77.875 L 42.976562 79.109375 L 44.078125 80.339844 L 45.519531 81.429688 L 46.441406 82.019531 L 48.046875 82.386719 L 49.898438 82.386719 L 48.753906 81.910156 L 46.902344 80.753906 L 45.457031 79.246094 L 44.777344 77.921875 L 44.601562 76.765625 L 44.765625 75.980469 L 45.179688 75.511719 L 45.988281 75.511719 L 46.441406 75.742188 L 46.832031 76.59375 L 47.035156 78.195312 L 47.035156 79.648438 L 46.746094 80.625 L 47.628906 79.34375 "/>
<path style=" stroke:none;fill-rule:nonzero;fill:rgb(96.470588%,92.156863%,80.392157%);fill-opacity:1;" d="M 47.035156 79.648438 L 46.746094 80.625 "/>
<path style=" stroke:none;fill-rule:nonzero;fill:rgb(96.470588%,92.156863%,80.392157%);fill-opacity:1;" d="M 46.558594 70.234375 L 47.578125 69.828125 L 49.285156 69.433594 L 49.945312 69.101562 L 49.898438 82.386719 L 47.828125 81.332031 L 46.746094 80.625 L 47.035156 79.648438 L 47.035156 75.855469 "/>
<path style=" stroke:none;fill-rule:nonzero;fill:rgb(96.470588%,92.156863%,80.392157%);fill-opacity:1;" d="M 49.285156 69.433594 L 49.945312 69.101562 L 50.636719 69.3125 L 52.589844 69.964844 L 53.554688 70.269531 L 54.628906 70.765625 L 54.636719 75.460938 L 54.007812 75.523438 L 53.386719 76.074219 L 53.027344 77.28125 L 52.910156 78.730469 L 53.027344 79.9375 L 53.308594 81.070312 L 53.671875 81.820312 L 53.535156 81.910156 L 52.074219 82.355469 L 50.511719 82.386719 L 49.898438 82.386719 "/>
<path style=" stroke:none;fill-rule:nonzero;fill:rgb(96.470588%,92.156863%,80.392157%);fill-opacity:1;" d="M 53.554688 70.269531 L 55.109375 71.027344 L 56.210938 71.777344 L 57.414062 73.3125 C 57.414062 73.3125 58.070312 74.5625 57.992188 74.726562 C 57.914062 74.894531 58.082031 76.347656 58.082031 76.347656 L 57.804688 77.589844 L 57.179688 78.859375 L 56.339844 79.914062 L 54.9375 81.109375 L 53.671875 81.820312 L 52.730469 81.050781 L 53.839844 80.136719 L 54.753906 78.933594 L 55.207031 77.96875 L 55.386719 77 L 55.226562 75.992188 L 54.636719 75.460938 L 54.320312 75.492188 "/>
<path style=" stroke:none;fill-rule:nonzero;fill:rgb(96.470588%,92.156863%,80.392157%);fill-opacity:1;" d="M 55.496094 82.792969 L 56.535156 82.386719 L 57.546875 82.113281 L 59.296875 81.886719 L 59.800781 81.898438 L 61.125 81.742188 L 62.207031 82.019531 L 62.78125 82.570312 L 63.070312 83.429688 L 62.882812 84.375 L 62.183594 85.117188 L 61.078125 85.660156 L 60.171875 86.023438 L 57.421875 87.4375 L 55.550781 88.421875 L 54.410156 88.972656 L 53.1875 89.34375 L 51.960938 89.152344 L 50.734375 88.761719 L 49.195312 88.042969 L 49.898438 82.386719 "/>
<path style=" stroke:none;fill-rule:nonzero;fill:rgb(96.470588%,92.156863%,80.392157%);fill-opacity:1;" d="M 51.460938 83.203125 L 51.292969 82.371094 L 52.804688 82.132812 L 53.671875 81.820312 L 54.460938 82.386719 L 55.304688 82.75 "/>
<path style=" stroke:none;fill-rule:nonzero;fill:rgb(96.470588%,92.156863%,80.392157%);fill-opacity:1;" d="M 50.207031 82.386719 L 49.964844 88.402344 L 48.710938 88.945312 L 46.746094 89.203125 L 45.480469 88.914062 L 44.144531 88.257812 L 42.164062 87.203125 L 40.539062 86.347656 L 38.8125 85.542969 L 37.808594 85.105469 L 37.109375 84.359375 L 36.917969 83.570312 L 37.210938 82.554688 L 37.664062 82.085938 L 38.554688 81.742188 L 39.589844 81.742188 L 40.269531 81.917969 L 41.242188 81.820312 L 42.367188 82.078125 L 43.613281 82.386719 L 44.496094 82.777344 L 45.378906 82.511719 L 46.441406 82.019531 "/>
<path style=" stroke:none;fill-rule:nonzero;fill:rgb(96.470588%,92.156863%,80.392157%);fill-opacity:1;" d="M 45.980469 81.726562 L 45.910156 82.265625 L 46.441406 82.019531 "/>
<path style="fill:none;stroke-width:2.2;stroke-linecap:round;stroke-linejoin:round;stroke:rgb(88.627451%,79.215686%,50.980392%);stroke-opacity:1;stroke-miterlimit:4;" d="M 456.379728 546.629139 C 456.379728 546.629139 429.300861 544.733983 423.542502 577.571209 C 417.784142 610.408436 442.894962 622.143827 442.894962 622.143827 C 442.894962 622.143827 447.705744 624.221209 474.09215 631.947616 C 501.936369 640.111366 514.582892 651.555194 514.582892 651.555194 C 514.582892 651.555194 523.475548 658.370467 529.780587 674.187733 C 531.347736 678.123827 542.171994 710.742381 502.738166 738.623045 C 458.347775 770.002459 422.813595 733.010467 414.285392 721.202186 C 404.554494 707.790311 405.538517 695.289569 407.834572 690.733905 C 410.713752 685.121327 414.431173 684.9391 419.205509 686.360467 C 423.797619 687.745389 427.952384 693.685975 429.082189 707.936092 C 431.268908 735.525194 423.615392 748.973514 407.105666 753.784295 C 404.773166 754.476756 405.319845 754.185194 405.319845 754.185194 C 405.319845 754.185194 382.50508 744.672967 369.858556 745.729881 C 367.708283 745.875663 365.375783 745.839217 365.375783 745.839217 C 365.375783 745.839217 344.966408 739.789295 337.349337 752.107811 C 333.59547 758.194178 334.105705 764.535663 336.401759 768.945545 C 338.734259 773.428319 342.92547 775.870155 342.92547 775.870155 C 342.92547 775.870155 348.793166 779.478241 361.694806 784.325467 C 370.332345 787.5691 411.369767 811.477225 419.934416 813.518163 C 428.499064 815.522655 440.89047 813.591053 449.746681 809.873631 C 458.602892 806.119764 465.272384 802.329452 464.106134 803.167694 C 464.106134 803.167694 471.395197 799.012928 497.745158 778.85867 C 524.168009 758.631522 525.625822 752.144256 533.279337 749.192186 C 540.932853 746.240116 548.11258 745.948553 548.11258 745.948553 " transform="matrix(-0.107181,0,0,0.107181,98.938735,1.958543)"/>
<path style="fill:none;stroke-width:2.2;stroke-linecap:round;stroke-linejoin:round;stroke:rgb(88.627451%,79.215686%,50.980392%);stroke-opacity:1;stroke-miterlimit:4;" d="M 429.337306 609.67953 C 430.831564 611.574686 434.43965 617.515272 433.127619 624.731444 C 432.10715 630.234686 430.430666 632.494295 428.353283 634.207225 C 425.364767 636.649061 423.433166 637.341522 423.433166 637.341522 " transform="matrix(-0.107181,0,0,0.107181,98.938735,1.958543)"/>
<path style="fill:none;stroke-width:2.2;stroke-linecap:round;stroke-linejoin:round;stroke:rgb(88.627451%,79.215686%,50.980392%);stroke-opacity:1;stroke-miterlimit:4;" d="M 404.627384 753.930077 C 404.627384 753.930077 430.868009 768.763319 442.530509 773.209647 C 450.912931 776.416834 457.983322 776.088827 457.983322 776.088827 " transform="matrix(-0.107181,0,0,0.107181,98.938735,1.958543)"/>
<path style="fill:none;stroke-width:2.2;stroke-linecap:round;stroke-linejoin:round;stroke:rgb(88.627451%,79.215686%,50.980392%);stroke-opacity:1;stroke-miterlimit:4;" d="M 456.366321 546.645943 C 456.366321 546.645943 429.323899 544.750786 423.565539 577.551568 C 417.770735 610.388794 442.918 622.16063 442.918 622.16063 C 442.918 622.16063 447.692336 624.238013 474.115188 631.964419 C 501.922961 640.091724 514.60593 651.535552 514.60593 651.535552 C 514.60593 651.535552 523.498586 658.387271 529.803625 674.204536 C 531.370774 678.104185 542.158586 710.722739 502.724758 738.603404 C 458.334367 769.982818 422.800188 732.990825 414.271985 721.218989 C 404.577531 707.807114 405.52511 695.306372 407.821164 690.750708 C 410.700344 685.101685 414.417766 684.919458 419.228547 686.377271 C 423.784211 687.725747 427.975422 693.702779 429.105227 707.91645 C 431.291946 735.505552 423.63843 748.990318 407.092258 753.801099 C 404.796203 754.457114 405.306438 754.165552 405.306438 754.165552 C 405.306438 754.165552 382.491672 744.689771 369.845149 745.710239 C 367.694875 745.892466 365.87261 746.147583 365.87261 746.147583 C 365.87261 746.147583 344.989446 739.769654 337.33593 752.088169 C 333.582063 758.174536 334.092297 764.552466 336.388352 768.925904 C 338.720852 773.445122 342.912063 775.886958 342.912063 775.886958 C 342.912063 775.886958 348.779758 779.495044 361.717844 784.342271 C 370.318938 787.585904 411.392805 811.457583 419.957453 813.498521 C 428.522102 815.539458 440.913508 813.607857 449.769719 809.853989 C 458.589485 806.136568 465.295422 802.346255 464.092727 803.148052 C 464.092727 803.148052 471.418235 799.029732 497.73175 778.875474 C 524.154602 758.648325 525.612414 752.124614 533.26593 749.172544 C 540.919445 746.256919 548.099172 745.965357 548.099172 745.965357 " transform="matrix(0.107181,0,0,0.107181,1.054889,1.945023)"/>
<path style="fill:none;stroke-width:2.2;stroke-linecap:round;stroke-linejoin:round;stroke:rgb(88.627451%,79.215686%,50.980392%);stroke-opacity:1;stroke-miterlimit:4;" d="M 429.360344 609.659888 C 430.818156 611.591489 434.462688 617.532075 433.114211 624.711802 C 432.130188 630.215044 431.073274 632.948443 428.995891 634.624927 C 426.007375 637.066763 424.549563 637.139654 424.549563 637.139654 " transform="matrix(0.107181,0,0,0.107181,1.054889,1.945023)"/>
<path style="fill:none;stroke-width:2.2;stroke-linecap:round;stroke-linejoin:round;stroke:rgb(88.627451%,79.215686%,50.980392%);stroke-opacity:1;stroke-miterlimit:4;" d="M 404.613977 753.94688 C 404.613977 753.94688 430.854602 768.780122 442.517102 773.22645 C 450.899524 776.433638 458.553039 776.287857 458.553039 776.287857 " transform="matrix(0.107181,0,0,0.107181,1.054889,1.945023)"/>
</g>
</svg>
